<?xml version="1.0" encoding="utf-8"?>
<!-- Generator: Adobe Illustrator 22.0.1, SVG Export Plug-In . SVG Version: 6.00 Build 0)  -->
<svg width="447" height="675" version="1.1" id="Layer_1" xmlns="http://www.w3.org/2000/svg" xmlns:xlink="http://www.w3.org/1999/xlink" x="0px" y="0px"
	 viewBox="0 0 447 675" style="enable-background:new 0 0 447 675;" xml:space="preserve">
<style type="text/css">
	.st0{fill:#02D4D8;}
	.st1{fill:#0C78A3;}
	.st2{fill:#01BBBE;}
	.st3{fill:#74E7F3;}
	.st4{fill:#35CBE2;}
	.st5{fill:#01C3C7;}
	.st6{fill:#37B9B5;}
	.st7{fill:#9BF5F3;}
	.st8{fill:#0FC4AD;}
	.st9{fill:#4DE2B9;}
</style>
<path class="st0" d="M357,160v103l-89-51L357,160z"/>
<path class="st1" d="M357,263l-89,51V212L357,263z"/>
<path class="st1" d="M357,263l0,103l-89-52L357,263z"/>
<path class="st2" d="M447,314l-90,52V263L447,314z"/>
<path class="st2" d="M447,212v102l-90-51L447,212z"/>
<path class="st0" d="M414.3,0v29.8l0,0l-25.8-14.9L414.3,0z"/>
<path class="st0" d="M447,108.5L357,160V57L447,108.5z"/>
<path class="st3" d="M357,469v103l-89-52L357,469z"/>
<path class="st4" d="M357,572l-89,51V520L357,572z"/>
<path class="st5" d="M357,572v103l-89-52L357,572z"/>
<path class="st5" d="M447,623l-90,52V572L447,623z"/>
<path class="st1" d="M447,623V520l-90,52L447,623z"/>
<path class="st1" d="M447,520l-90,52V469L447,520z"/>
<path class="st4" d="M447,314v103l-90-51L447,314z"/>
<path class="st4" d="M447,417l-90,52V366L447,417z"/>
<path class="st5" d="M447,417v103l-90-51L447,417z"/>
<path class="st4" d="M357,366v103l-89-52L357,366z"/>
<path class="st6" d="M178,160v103l-88-51L178,160z"/>
<path class="st7" d="M268,314l-90,52V263L268,314z"/>
<path class="st8" d="M117.8,314.3l-41.6,24v-48l0,0L117.8,314.3z"/>
<path class="st6" d="M117,168l-28,16v-32L117,168z"/>
<path class="st7" d="M268,212l0,102l-90-51L268,212z"/>
<path class="st6" d="M268.5,212.5l-90,51v-103L268.5,212.5z"/>
<path class="st9" d="M178,469v103l-88-52L178,469z"/>
<path class="st4" d="M268,623l-90,52V572L268,623z"/>
<path class="st9" d="M89.4,623L0,675V572L89.4,623z"/>
<path class="st4" d="M268,623V520l-90,52L268,623z"/>
<path class="st4" d="M268,520l-90,52V469L268,520z"/>
<path class="st3" d="M268,314v103l-90-51L268,314z"/>
<path class="st3" d="M268,417l-90,52V366L268,417z"/>
<path class="st7" d="M268,417v103l-90-51L268,417z"/>
<path class="st3" d="M357,469.1L268,520V417L357,469.1z"/>
<path class="st3" d="M357.3,365.7L268,417V314L357.3,365.7z"/>
<image style="overflow:visible;" width="564" height="513" xlink:href="c46ba57efa711dbe6bb78421abf530a3.jpg"  transform="matrix(0.4804 0 0 0.4804 -280 248.2646)">
</image>
</svg>
