<?xml version="1.0" encoding="utf-8"?>
<!-- Generator: Adobe Illustrator 22.0.1, SVG Export Plug-In . SVG Version: 6.00 Build 0)  -->
<svg width="419" height="464" version="1.1" xmlns="http://www.w3.org/2000/svg" xmlns:xlink="http://www.w3.org/1999/xlink" x="0px" y="0px"
	 viewBox="0 0 419 464" style="enable-background:new 0 0 419 464;" xml:space="preserve">
<style type="text/css">
	.st0{display:none;}
	.st1{display:inline;fill:#262233;}
	.st2{fill:#01C3C7;}
	.st3{fill:#0C78A3;}
	.st4{fill:#01BBBE;}
	.st5{fill:#9EF4F2;}
	.st6{fill:#9BF5F3;}
	.st7{fill:#35CBE2;}
	.st8{fill:#74E7F3;}
	.st9{fill:#37B9B5;}
</style>
<g id="Layer_2" class="st0">
	<rect y="1" class="st1" width="419" height="463.2"/>
	
		<image style="display:inline;overflow:visible;" width="564" height="513" xlink:href="c46ba57efa711dbe6bb78421abf530a3.jpg"  transform="matrix(0.4804 0 0 0.4804 -313 154.5)">
	</image>
</g>
<g id="Layer_1">
	<path class="st2" d="M89,360.5V257l89,52L89,360.5z"/>
	<path class="st3" d="M89,257l89-51v103L89,257z"/>
	<path class="st3" d="M119,368.5l30-17.5l0,0v35L119,368.5z"/>
	<path class="st3" d="M89,257V154l89,52L89,257z"/>
	<path class="st4" d="M0,205.5L89,154v103L0,205.5z"/>
	<path class="st2" d="M0,411.7v-0.2l89.1-51.4l0.1,0v103L0,411.7z"/>
	<path class="st5" d="M0.1,205.8V103l89,51L0.1,205.8z"/>
	<path class="st6" d="M0,103l89-51v102L0,103z"/>
	<path class="st5" d="M89.1,154V52l89,51L89.1,154z"/>
	<path class="st6" d="M267,154V51l89,52L267,154z"/>
	<path class="st7" d="M383,124V82l0,0l36,21L383,124z"/>
	<path class="st8" d="M267,360V257l89,52L267,360z"/>
	<path class="st9" d="M177.4,206.1l89.8-52.1v103.5L177.4,206.1z"/>
	<path class="st9" d="M178,309V206l89,51L178,309z"/>
	<path class="st8" d="M178,309l89-52v103L178,309z"/>
	<path class="st8" d="M178,103v103l89-52L178,103z"/>
	<path class="st6" d="M178.1,103l89-52v103L178.1,103z"/>
	<path class="st2" d="M178,103V0l89.3,51.4L178,103z"/>
	<path class="st3" d="M89,52l89-52v103L89,52z"/>
	<path class="st8" d="M89,154l89-51v103L89,154z"/>
</g>
</svg>
